<?xml version="1.0" encoding="utf-8"?>
<!-- Generator: Adobe Illustrator 24.1.3, SVG Export Plug-In . SVG Version: 6.00 Build 0)  -->
<svg version="1.1" id="Layer_1" xmlns="http://www.w3.org/2000/svg" xmlns:xlink="http://www.w3.org/1999/xlink" x="0px" y="0px"
	 viewBox="0 0 200 200" style="enable-background:new 0 0 200 200;" xml:space="preserve">
<style type="text/css">
	.st0{fill:#FFFFFF;}
</style>
<path class="st0" d="M26.03,157.56c3.35-2.62,6.66-5.21,9.97-7.8c14.42,17.5,32.72,27.96,55.33,30.2
	c20.59,2.04,39.35-3.22,55.97-15.56c31.62-23.48,41.5-66.19,23.56-101.28c-17.69-34.6-58.15-51.69-95.3-40
	C54.18,29.85,38.15,43.32,27.84,63.2c-10.3,19.87-11.57,40.66-5,62.1c-0.33,0.03-0.62,0.07-0.91,0.07c-3.79,0-7.58-0.01-11.37,0.02
	c-0.71,0.01-1.03-0.2-1.22-0.91c-1.52-5.69-2.5-11.46-2.97-17.33C5.92,101.48,6,95.83,6.61,90.2c1.77-16.31,7.35-31.21,16.99-44.49
	C36.83,27.49,54.35,15.46,76.13,9.69c6.32-1.67,12.75-2.63,19.29-2.83c28.04-0.86,51.9,8.79,71.4,28.88
	c12.49,12.87,20.32,28.31,23.88,45.9c1.37,6.77,1.96,13.62,1.79,20.51c-0.84,32.39-18.15,61.31-45.28,77.69
	c-9.93,5.99-20.62,9.96-32.03,11.95c-7.25,1.26-14.56,1.74-21.9,1.17c-27.13-2.09-49.33-13.72-66.68-34.66
	c-0.16-0.19-0.32-0.39-0.47-0.58C26.11,157.7,26.09,157.67,26.03,157.56z"/>
<path class="st0" d="M121.16,125.22c0-0.39,0-0.72,0-1.05c0-13.29,0-26.59-0.01-39.88c0-0.64,0.17-1.05,0.7-1.46
	c3.27-2.51,6.5-5.07,9.77-7.59c0.32-0.25,0.79-0.42,1.19-0.42c3.57-0.03,7.14-0.05,10.7,0c2.78,0.04,5.47,0.6,7.95,1.94
	c4.85,2.61,6.8,7.33,6.37,12.44c-0.33,3.92-2.1,6.98-5.56,9.29c0.74,0.15,1.29,0.25,1.83,0.37c6.26,1.29,10.25,6.67,9.93,13.07
	c-0.37,7.53-5.28,10.92-10.5,12.26c-2.27,0.58-4.66,0.98-7,1.01c-8.25,0.12-16.5,0.05-24.75,0.05
	C121.63,125.26,121.46,125.24,121.16,125.22z M131.93,115.55c0.23,0.03,0.4,0.07,0.56,0.07c4.51,0,9.03,0.05,13.53-0.04
	c1.31-0.03,2.65-0.35,3.89-0.79c2.11-0.75,3.13-2.41,3.18-4.64c0.04-2.25-0.93-3.9-3.02-4.84c-1.64-0.73-3.38-0.92-5.13-0.93
	c-4.04-0.03-8.08,0.01-12.12-0.03c-0.82-0.01-0.97,0.3-0.96,1.02c0.03,3.09,0.01,6.18,0.01,9.27
	C131.87,114.93,131.9,115.23,131.93,115.55z M130.98,84.43c0,3.51,0.01,6.88-0.01,10.24c0,0.56,0.34,0.53,0.72,0.53
	c3.18,0,6.35,0.07,9.52-0.05c1.28-0.05,2.6-0.36,3.8-0.82c2.02-0.78,2.84-2.49,2.83-4.58c-0.01-2.17-0.88-3.88-3-4.64
	c-1.05-0.38-2.21-0.61-3.33-0.65c-2.78-0.09-5.57-0.03-8.35-0.03C132.48,84.43,131.79,84.43,130.98,84.43z"/>
<path class="st0" d="M67.62,94.75c0-6.65,0-13.23,0-19.88c3.66,0,7.26,0,10.97,0c0.02,0.27,0.05,0.56,0.05,0.85
	c0,13.33,0,26.65,0.01,39.98c0,0.55-0.14,0.91-0.59,1.26c-3.2,2.51-6.38,5.05-9.57,7.58c-0.24,0.19-0.48,0.36-0.85,0.65
	c0-6.79,0-13.46,0-20.21c-0.41,0-0.71,0-1,0c-6.19,0-12.38,0.02-18.57-0.02c-0.82,0-1.09,0.17-1.08,1.05
	c0.04,6.05,0.02,12.1,0.02,18.15c0,0.33,0,0.66,0,1.04c-3.69,0-7.29,0-10.95,0c0-16.77,0-33.52,0-50.33c3.6,0,7.21,0,10.95,0
	c0,0.31,0,0.63,0,0.95c0,5.99,0.02,11.99-0.02,17.98c0,0.81,0.24,1.03,1.04,1.03c6.22-0.03,12.43-0.02,18.65-0.02
	C66.98,94.81,67.28,94.77,67.62,94.75z"/>
<path class="st0" d="M85.42,74.84c3.63,0,7.21,0,10.9,0c0.02,0.38,0.05,0.75,0.05,1.13c0,12.68,0,25.36,0,38.05
	c0,1.25,0,1.25,1.28,1.25c5.66,0,11.32,0,16.97,0c0.33,0,0.66,0,1.06,0c0,3.34,0,6.61,0,9.93c-10.08,0-20.15,0-30.27,0
	C85.42,108.43,85.42,91.69,85.42,74.84z"/>
</svg>
